<svg width="25" height="180" viewBox="0 0 25 180" fill="none" xmlns="http://www.w3.org/2000/svg">
<path d="M0.499878 0.522727L23.7726 0.522727L23.7726 16.2045H19.7158L19.7158 5.44318L14.1703 5.44318V15.3977L10.1135 15.3977V5.44318L4.5567 5.44318V16.25H0.499878L0.499878 0.522727ZM23.7726 24.7301L15.8408 29.4233V29.6051L23.7726 34.321V39.8778L12.1362 32.7756L0.499878 40.0369V34.3778L8.44306 29.6051V29.4233L0.499878 24.6506V19.0142L12.1362 26.2983L23.7726 19.1506V24.7301ZM15.6249 62.4318V57.4545C16.2688 57.3636 16.8408 57.178 17.3408 56.8977C17.8484 56.6174 18.2802 56.2576 18.6362 55.8182C18.9923 55.3788 19.265 54.8712 19.4544 54.2955C19.6438 53.7273 19.7385 53.1098 19.7385 52.4432C19.7385 51.2386 19.4393 50.1894 18.8408 49.2955C18.2499 48.4015 17.3862 47.7083 16.2499 47.2159C15.1211 46.7235 13.7499 46.4773 12.1362 46.4773C10.4772 46.4773 9.08321 46.7235 7.95442 47.2159C6.82564 47.7159 5.97336 48.4129 5.39761 49.3068C4.82185 50.2008 4.53397 51.2348 4.53397 52.4091C4.53397 53.0682 4.62109 53.678 4.79533 54.2386C4.96958 54.8068 5.22336 55.3106 5.5567 55.75C5.89761 56.1894 6.31048 56.553 6.79533 56.8409C7.28018 57.1364 7.83321 57.3409 8.45442 57.4545L8.4317 62.4318C7.36351 62.303 6.33321 61.9811 5.34079 61.4659C4.35594 60.9583 3.47336 60.2727 2.69306 59.4091C1.92033 58.553 1.3067 57.5303 0.852151 56.3409C0.405181 55.1591 0.181696 53.822 0.181696 52.3295C0.181696 50.2538 0.651393 48.3977 1.59079 46.7614C2.53018 45.1326 3.89003 43.8447 5.67033 42.8977C7.45064 41.9583 9.60594 41.4886 12.1362 41.4886C14.6741 41.4886 16.8332 41.9659 18.6135 42.9205C20.3938 43.875 21.7499 45.1705 22.6817 46.8068C23.6211 48.4432 24.0908 50.2841 24.0908 52.3295C24.0908 53.678 23.9014 54.928 23.5226 56.0795C23.1438 57.2386 22.5908 58.2652 21.8635 59.1591C21.1438 60.053 20.2612 60.7803 19.2158 61.3409C18.1703 61.9091 16.9734 62.2727 15.6249 62.4318ZM0.499878 69.5341V64.2614L23.7726 72.2955V78.6364L0.499878 86.6591V81.3864L18.4544 75.5568V75.375L0.499878 69.5341ZM9.64761 69.2045L9.64761 81.6591H5.8067L5.8067 69.2045H9.64761ZM0.499878 89.4602L23.7726 89.4602V94.3807H4.5567L4.5567 104.358L0.499878 104.358L0.499878 89.4602ZM23.7726 112.537L0.499878 112.537V107.616L23.7726 107.616V112.537ZM0.499878 116.585L23.7726 116.585V125.903C23.7726 127.616 23.5188 129.044 23.0112 130.188C22.5037 131.331 21.7991 132.191 20.8976 132.767C20.0037 133.343 18.9734 133.631 17.8067 133.631C16.8976 133.631 16.0984 133.449 15.409 133.085C14.7272 132.722 14.1665 132.222 13.7272 131.585C13.2953 130.956 12.9885 130.237 12.8067 129.426H12.5794C12.5415 130.313 12.2915 131.142 11.8294 131.915C11.3673 132.695 10.7196 133.328 9.88624 133.812C9.06048 134.297 8.07564 134.54 6.9317 134.54C5.69685 134.54 4.59457 134.233 3.62488 133.619C2.66276 133.013 1.90139 132.116 1.34079 130.926C0.780181 129.737 0.499878 128.271 0.499878 126.528V116.585ZM4.52261 121.506V125.517C4.52261 126.888 4.78397 127.888 5.3067 128.517C5.837 129.146 6.54154 129.46 7.42033 129.46C8.06427 129.46 8.63245 129.305 9.12488 128.994C9.6173 128.684 10.0037 128.241 10.284 127.665C10.5643 127.097 10.7044 126.419 10.7044 125.631V121.506H4.52261ZM14.034 121.506V125.153C14.034 125.828 14.1514 126.426 14.3862 126.949C14.6287 127.479 14.9696 127.896 15.409 128.199C15.8484 128.509 16.3749 128.665 16.9885 128.665C17.8294 128.665 18.5075 128.366 19.0226 127.767C19.5378 127.176 19.7953 126.335 19.7953 125.244L19.7953 121.506H14.034ZM23.7726 152.116L23.7726 157.037H8.65897C6.962 157.037 5.47715 156.632 4.20442 155.821C2.9317 155.018 1.93927 153.893 1.22715 152.446C0.522605 150.999 0.170332 149.313 0.170332 147.389C0.170332 145.457 0.522605 143.768 1.22715 142.321C1.93927 140.874 2.9317 139.749 4.20442 138.946C5.47715 138.143 6.962 137.741 8.65897 137.741H23.7726V142.662H9.07942C8.19306 142.662 7.40518 142.855 6.71579 143.241C6.02639 143.635 5.48473 144.188 5.09079 144.901C4.69685 145.613 4.49988 146.442 4.49988 147.389C4.49988 148.344 4.69685 149.173 5.09079 149.878C5.48473 150.59 6.02639 151.139 6.71579 151.526C7.40518 151.92 8.19306 152.116 9.07942 152.116H23.7726ZM0.499878 161.085H23.7726L23.7726 170.267C23.7726 172.025 23.4582 173.525 22.8294 174.767C22.2082 176.017 21.3256 176.968 20.1817 177.619C19.0453 178.278 17.7082 178.608 16.1703 178.608C14.6249 178.608 13.2953 178.275 12.1817 177.608C11.0756 176.941 10.2272 175.975 9.63624 174.71C9.04533 173.453 8.74988 171.93 8.74988 170.142L8.74988 163.994H12.7044L12.7044 169.347C12.7044 170.286 12.8332 171.066 13.0908 171.688C13.3484 172.309 13.7347 172.771 14.2499 173.074C14.765 173.384 15.4052 173.54 16.1703 173.54C16.9431 173.54 17.5946 173.384 18.1249 173.074C18.6552 172.771 19.0567 172.305 19.3294 171.676C19.6097 171.055 19.7499 170.271 19.7499 169.324V166.006H0.499878V161.085ZM11.0908 173.653L0.499878 179.438V174.006L11.0908 168.347L11.0908 173.653Z" fill="white"/>
</svg>
